<?xml version="1.0" encoding="UTF-8"?>
<svg id="Layer_1" data-name="Layer 1" xmlns="http://www.w3.org/2000/svg" width="80" height="80" viewBox="0 0 80 80">
  <defs>
    <style>
      .cls-1 {
        fill: #fff;
      }
    </style>
  </defs>
  <path class="cls-1" d="M73.33,40v-6.67C73.33,14.93,58.42,0,40,0S6.67,14.93,6.67,33.33v6.67c-3.67,0-6.67,3-6.67,6.67v20c0,3.67,3,6.67,6.67,6.67h11.67v-33.33h-5v-6.67c0-14.72,11.94-26.67,26.67-26.67s26.67,11.94,26.67,26.67v6.67h-5v33.33h11.67c3.67,0,6.67-3,6.67-6.67v-20c0-3.67-3-6.67-6.67-6.67Z"/>
  <polygon class="cls-1" points="56.67 53.33 47.03 53.33 44.99 69.69 40.44 33.33 29.58 33.33 27.08 53.33 23.33 53.33 23.33 60 32.97 60 35.01 43.64 39.56 80 50.42 80 52.92 60 56.67 60 56.67 53.33"/>
</svg>