<?xml version="1.0" encoding="UTF-8"?>
<svg id="Layer_1" data-name="Layer 1" xmlns="http://www.w3.org/2000/svg" width="80" height="80" viewBox="0 0 80 80">
  <defs>
    <style>
      .cls-1 {
        fill: #fff;
      }
    </style>
  </defs>
  <path class="cls-1" d="M53.33,0h-26.67c-3.67,0-6.67,3-6.67,6.67v13.33c0,3.67,3,6.67,6.67,6.67h6.67l6.67,8.33,6.67-8.33h6.67c3.67,0,6.67-3,6.67-6.67V6.67c0-3.67-3-6.67-6.67-6.67ZM53.33,20h-9.87l-3.46,4.33-3.46-4.33h-9.87V6.67h26.67v13.33h0Z"/>
  <path class="cls-1" d="M73.33,0h-8.33v6.67h8.33v13.33h-8.33v6.67l8.33,8.33v-8.33c3.67,0,6.67-3,6.67-6.67V6.67c0-3.67-3-6.67-6.67-6.67Z"/>
  <path class="cls-1" d="M15,20H6.67V6.67h8.33V0H6.67C3,0,0,3,0,6.67v13.33c0,3.67,3,6.67,6.67,6.67v8.33s8.33-8.33,8.33-8.33h0v-6.67Z"/>
  <path class="cls-1" d="M40,40c-5.52,0-10,4.48-10,10s4.48,10,10,10,10-4.48,10-10-4.48-10-10-10ZM40,53.33c-1.84,0-3.33-1.49-3.33-3.33s1.49-3.33,3.33-3.33,3.33,1.49,3.33,3.33-1.49,3.33-3.33,3.33Z"/>
  <path class="cls-1" d="M53.33,80v-6.67c0-3.68-2.98-6.67-6.67-6.67h-13.33c-3.68,0-6.67,2.98-6.67,6.67v6.67h6.67v-6.67h13.33v6.67h6.67Z"/>
  <path class="cls-1" d="M70,40c-5.52,0-10,4.48-10,10s4.48,10,10,10,10-4.48,10-10-4.48-10-10-10ZM70,53.33c-1.84,0-3.33-1.49-3.33-3.33s1.49-3.33,3.33-3.33,3.33,1.49,3.33,3.33-1.49,3.33-3.33,3.33Z"/>
  <path class="cls-1" d="M80,66.67h-16.67c-3.68,0-6.67,2.98-6.67,6.67v6.67h6.67v-6.67h16.67v-6.67Z"/>
  <path class="cls-1" d="M0,50c0,5.52,4.48,10,10,10s10-4.48,10-10-4.48-10-10-10S0,44.48,0,50ZM6.67,50c0-1.84,1.49-3.33,3.33-3.33s3.33,1.49,3.33,3.33-1.49,3.33-3.33,3.33-3.33-1.49-3.33-3.33Z"/>
  <path class="cls-1" d="M0,66.67h16.67c3.68,0,6.67,2.98,6.67,6.67v6.67h-6.67v-6.67H0v-6.67Z"/>
</svg>