<?xml version="1.0" encoding="UTF-8"?>
<svg id="Layer_1" data-name="Layer 1" xmlns="http://www.w3.org/2000/svg" width="80" height="80" viewBox="0 0 80 80">
  <defs>
    <style>
      .cls-1 {
        fill: #fff;
      }
    </style>
  </defs>
  <circle class="cls-1" cx="40" cy="10" r="10"/>
  <path class="cls-1" d="M50,23.33c3.68,0,6.67,2.98,6.67,6.67v3.33H23.33v-3.33c0-3.68,2.99-6.67,6.67-6.67h20Z"/>
  <circle class="cls-1" cx="16.67" cy="56.67" r="10"/>
  <path class="cls-1" d="M26.67,70c3.68,0,6.67,2.98,6.67,6.67v3.33H0v-3.33c0-3.68,2.98-6.67,6.67-6.67h20Z"/>
  <path class="cls-1" d="M53.02,17.3c6.22,4.19,10.31,11.3,10.31,19.36,0,1.74-.21,3.43-.57,5.06.19,0,.37-.06.57-.06,2.14,0,4.16.46,6,1.27.43-2.02.67-4.12.67-6.27,0-11.13-6.07-20.81-15.07-25.99-.11,2.41-.79,4.65-1.91,6.63Z"/>
  <path class="cls-1" d="M16.67,41.67c.19,0,.37.05.57.06-.36-1.63-.57-3.32-.57-5.06,0-8.07,4.09-15.18,10.31-19.36-1.12-1.98-1.8-4.22-1.91-6.63-9,5.18-15.07,14.87-15.07,26,0,2.15.23,4.25.67,6.27,1.84-.81,3.86-1.27,6-1.27Z"/>
  <path class="cls-1" d="M48.51,58.38c-2.64,1.04-5.5,1.62-8.51,1.62s-5.87-.59-8.51-1.62c-.26,2.29-1.01,4.43-2.19,6.29,3.32,1.27,6.92,2,10.69,2s7.37-.73,10.69-2c-1.18-1.86-1.92-4-2.19-6.29Z"/>
  <circle class="cls-1" cx="63.33" cy="56.67" r="10"/>
  <path class="cls-1" d="M73.33,70c3.68,0,6.67,2.98,6.67,6.67v3.33h-33.33v-3.33c0-3.68,2.98-6.67,6.67-6.67h20Z"/>
</svg>