<svg xmlns="http://www.w3.org/2000/svg" width="1141" height="919" viewBox="0 0 1141 919">
<g>
<path d="M 540.00 899.47 C490.55,894.34 436.29,877.31 393.50,853.50 C378.39,845.09 350.44,826.48 338.00,816.56 C302.35,788.10 268.18,748.36 244.97,708.36 C224.76,673.52 207.30,626.89 200.10,588.50 C193.62,554.02 192.53,539.73 193.32,500.00 C193.64,483.77 194.40,466.23 195.00,461.00 C198.19,433.44 209.82,387.35 219.22,365.00 C230.48,338.24 233.08,332.76 243.23,314.50 C266.08,273.37 296.80,236.29 334.27,204.62 C370.82,173.74 414.74,149.46 461.00,134.56 C547.09,106.83 643.50,110.79 726.50,145.45 C740.97,151.49 765.00,163.69 777.50,171.33 C831.63,204.43 879.94,253.55 911.41,307.50 C917.17,317.37 930.21,342.95 932.87,349.59 C933.95,352.29 935.85,356.75 937.09,359.50 C946.29,379.85 958.44,424.63 961.91,451.00 C966.92,489.12 967.39,543.62 962.92,567.11 C956.32,601.76 950.00,626.57 943.46,643.50 C942.19,646.80 939.49,653.78 937.47,659.00 C927.56,684.62 911.86,713.43 893.33,740.00 C873.95,767.78 841.07,801.55 812.65,822.87 C755.32,865.88 691.88,890.99 619.01,899.54 C603.46,901.36 557.84,901.32 540.00,899.47 ZM 733.83 311.60 C738.28,313.19 747.15,313.36 752.22,311.95 C758.50,310.21 764.17,305.14 767.83,298.00 C770.88,292.06 771.13,290.90 770.74,284.50 C770.25,276.47 767.81,270.88 762.48,265.54 C757.47,260.54 753.45,258.77 745.89,258.22 C733.28,257.32 724.41,262.35 718.91,273.53 C716.00,279.45 715.77,280.59 716.21,287.38 C716.57,293.00 717.32,295.88 719.33,299.30 C722.37,304.49 728.51,309.70 733.83,311.60 ZM 405.99 312.07 C407.37,312.48 411.20,312.86 414.50,312.90 C422.40,313.00 429.20,309.85 434.81,303.48 C450.46,285.69 437.80,258.10 413.95,258.02 C398.76,257.97 386.65,270.16 386.65,285.50 C386.65,297.74 394.55,308.58 405.99,312.07 ZM 571.78 391.91 C575.48,392.32 579.62,392.53 581.00,392.37 C591.10,391.20 593.91,390.43 600.93,386.92 C614.01,380.37 624.23,366.71 626.98,352.11 C627.93,347.08 628.40,344.82 627.49,343.82 C626.72,342.96 624.95,343.00 621.62,343.00 L 615.23 343.00 L 614.55 348.48 C613.10,360.09 604.56,371.57 593.67,376.55 C572.08,386.43 545.57,372.06 543.11,349.14 L 542.50 343.50 L 535.75 343.20 C532.26,343.05 530.33,342.96 529.49,343.87 C528.43,345.01 529.08,347.73 530.54,353.91 C535.23,373.82 552.56,389.79 571.78,391.91 Z" fill="rgba(151,130,92,1)"/>
<path d="M 571.78 391.91 C552.56,389.79 535.23,373.82 530.54,353.91 C527.92,342.81 527.90,342.86 535.75,343.20 L 542.50 343.50 L 543.11 349.14 C545.57,372.06 572.08,386.43 593.67,376.55 C604.56,371.57 613.10,360.09 614.55,348.48 L 615.23 343.00 L 621.62 343.00 C628.86,343.00 628.74,342.80 626.98,352.11 C624.23,366.71 614.01,380.37 600.93,386.92 C593.91,390.43 591.10,391.20 581.00,392.37 C579.62,392.53 575.48,392.32 571.78,391.91 ZM 405.99 312.07 C394.55,308.58 386.65,297.74 386.65,285.50 C386.65,270.16 398.76,257.97 413.95,258.02 C437.80,258.10 450.46,285.69 434.81,303.48 C429.20,309.85 422.40,313.00 414.50,312.90 C411.20,312.86 407.37,312.48 405.99,312.07 ZM 733.83 311.60 C728.51,309.70 722.37,304.49 719.33,299.30 C717.32,295.88 716.57,293.00 716.21,287.38 C715.77,280.59 716.00,279.45 718.91,273.53 C724.41,262.35 733.28,257.32 745.89,258.22 C753.45,258.77 757.47,260.54 762.48,265.54 C767.81,270.88 770.25,276.47 770.74,284.50 C771.13,290.90 770.88,292.06 767.83,298.00 C764.17,305.14 758.50,310.21 752.22,311.95 C747.15,313.36 738.28,313.19 733.83,311.60 Z" fill="rgba(253,253,250,1)"/>
</g>
</svg>